<svg version="1.1" viewBox="0.0 0.0 149.5249343832021 149.34120734908137" fill="none" stroke="none" stroke-linecap="square" stroke-miterlimit="10" xmlns:xlink="http://www.w3.org/1999/xlink" xmlns="http://www.w3.org/2000/svg"><clipPath id="p.0"><path d="m0 0l149.52493 0l0 149.3412l-149.52493 0l0 -149.3412z" clip-rule="nonzero"/></clipPath><g clip-path="url(#p.0)"><path fill="#000000" fill-opacity="0.0" d="m0 0l149.52493 0l0 149.3412l-149.52493 0z" fill-rule="evenodd"/><path fill="#0b5394" d="m0 24.824644l0 0c0 -13.710273 11.114371 -24.824644 24.824644 -24.824644l99.29559 0l0 0c6.583908 0 12.898148 2.615446 17.55368 7.27097c4.6555176 4.655524 7.2709656 10.969769 7.2709656 17.553675l0 99.29559c0 13.710266 -11.11438 24.824646 -24.824646 24.824646l-99.29559 0c-13.710273 0 -24.824644 -11.11438 -24.824644 -24.824646z" fill-rule="evenodd"/><path stroke="#0b5394" stroke-width="1.0" stroke-linejoin="round" stroke-linecap="butt" d="m0 24.824644l0 0c0 -13.710273 11.114371 -24.824644 24.824644 -24.824644l99.29559 0l0 0c6.583908 0 12.898148 2.615446 17.55368 7.27097c4.6555176 4.655524 7.2709656 10.969769 7.2709656 17.553675l0 99.29559c0 13.710266 -11.11438 24.824646 -24.824646 24.824646l-99.29559 0c-13.710273 0 -24.824644 -11.11438 -24.824644 -24.824646z" fill-rule="evenodd"/><path fill="#ffffff" d="m32.870304 120.35244l0 -92.15625l85.125 0l0 19.96875l-65.03125 0l0 16.125l52.35937 0l0 19.96875l-52.35937 0l0 16.125l65.03125 0l0 19.96875l-85.125 0z" fill-rule="nonzero"/></g></svg>