<svg version="1.1" viewBox="0.0 0.0 291.5249343832021 291.88188976377955" fill="none" stroke="none" stroke-linecap="square" stroke-miterlimit="10" xmlns:xlink="http://www.w3.org/1999/xlink" xmlns="http://www.w3.org/2000/svg"><clipPath id="p.0"><path d="m0 0l291.52493 0l0 291.8819l-291.52493 0l0 -291.8819z" clip-rule="nonzero"/></clipPath><g clip-path="url(#p.0)"><path fill="#000000" fill-opacity="0.0" d="m0 0l291.52493 0l0 291.8819l-291.52493 0z" fill-rule="evenodd"/><path fill="#0b5394" d="m0 48.64664l0 0c0 -26.866796 21.779844 -48.64664 48.64664 -48.64664l194.58073 0l0 0c12.901901 0 25.275345 5.1252565 34.39836 14.248272c9.123016 9.123014 14.248291 21.496479 14.248291 34.39837l0 194.58073c0 26.866806 -21.779846 48.646652 -48.646652 48.646652l-194.58073 0c-26.866796 0 -48.64664 -21.779846 -48.64664 -48.646652z" fill-rule="evenodd"/><path fill="#000000" fill-opacity="0.0" d="m33.041996 -124.020996l202.92914 0l0 471.87402l-202.92914 0z" fill-rule="evenodd"/><path fill="#efefef" d="m153.05762 247.01962q-43.390625 0 -70.640625 -26.609375q-27.249996 -26.609375 -27.249996 -70.90625l0 -5.109375q0 -29.71875 11.484371 -53.140625q11.484375 -23.421875 32.53125 -36.078125q21.0625 -12.671875 48.046875 -12.671875q40.46875 0 63.703125 25.515625q23.234375 25.515625 23.234375 72.359375l0 21.515625l-125.59375 0q2.5625 19.328125 15.40625 31.0q12.859375 11.65625 32.546875 11.65625q30.4375 0 47.578125 -22.0625l25.875 28.984375q-11.84375 16.78125 -32.078125 26.171875q-20.234375 9.375 -44.84375 9.375zm-6.015625 -161.875q-15.671875 0 -25.4375 10.578125q-9.75 10.578125 -12.484375 30.265625l73.28125 0l0 -4.203125q-0.359375 -17.5 -9.484375 -27.0625q-9.109375 -9.578125 -25.875 -9.578125z" fill-rule="nonzero"/></g></svg>